<?xml version="1.0" encoding="utf-8"?>
<!-- Generator: Adobe Illustrator 15.0.0, SVG Export Plug-In  -->
<!DOCTYPE svg PUBLIC "-//W3C//DTD SVG 1.1//EN" "http://www.w3.org/Graphics/SVG/1.1/DTD/svg11.dtd" [
	<!ENTITY ns_flows "http://ns.adobe.com/Flows/1.0/">
]>
<svg version="1.1"
	 xmlns="http://www.w3.org/2000/svg" xmlns:xlink="http://www.w3.org/1999/xlink" xmlns:a="http://ns.adobe.com/AdobeSVGViewerExtensions/3.0/"
	 x="0px" y="0px" width="34px" height="33px" viewBox="-0.75 -0.181 34 33"
	 overflow="visible" enable-background="new -0.75 -0.181 34 33" xml:space="preserve">
<defs>
</defs>
<path fill="#ED6545" d="M32.5,26.169c0,3.497-2.834,6.331-6.33,6.331H6.331C2.834,32.5,0,29.666,0,26.169V6.331
	C0,2.834,2.834,0,6.331,0H26.17c3.496,0,6.33,2.834,6.33,6.331V26.169z"/>
<path fill="#FFFFFF" d="M24.502,3.317v17.465c-0.296,4.514-4.182,8.399-9.066,8.399H15.14c-2.96,0-5.513-1.184-7.142-3.552
	l1.925-2.923c1.332,1.628,2.849,2.923,5.217,2.923c3.22,0,5.81-2.257,5.81-5.513V3.317H24.502z"/>
</svg>
