<?xml version="1.0" encoding="utf-8"?>
<!-- Generator: Adobe Illustrator 16.0.0, SVG Export Plug-In . SVG Version: 6.00 Build 0)  -->
<!DOCTYPE svg PUBLIC "-//W3C//DTD SVG 1.1//EN" "http://www.w3.org/Graphics/SVG/1.1/DTD/svg11.dtd">
<svg version="1.1" id="Layer_1" xmlns="http://www.w3.org/2000/svg" xmlns:xlink="http://www.w3.org/1999/xlink" x="0px" y="0px"
	 width="512px" height="512px" viewBox="0 0 512 512" enable-background="new 0 0 512 512" xml:space="preserve">
<path fill="#FFFFFF" d="M509.925,256.596c0,140.145-113.607,253.756-253.754,253.756c-140.142,0-253.756-113.611-253.756-253.756
	S116.029,2.839,256.17,2.839C396.317,2.839,509.925,116.451,509.925,256.596z"/>
<g>
	<path fill="#E76D41" d="M255.543,402.414c50.414,0,94.636-26.493,119.507-66.316c13.495-21.604,78.278-74.479,78.278-74.479
		s-66.694-58.76-83.188-81.82c-25.534-35.706-67.35-58.979-114.597-58.979h1.258c-36.398,0-74.663,0.837-111.524,0
		c-38.473-0.88-57.935-10.04-57.935-10.04s11.228,17.488,15.464,22.661c7.516,9.172,14.241,15.151,30.16,27.814
		c0.769,0.612,3.521,3.599,4.167,4.48c6.988,9.552,3.124,16.85,0.162,21.398c-0.047,0.406,0.25-0.4,0,0
		c-4.227,6.766-12.42,15.569-23.138,25.884c-1.035,0.994-3.143,3.024-4.206,4.024c-23,21.773-50.937,44.577-50.937,44.577
		s66.694,58.753,83.188,81.813c25.537,35.708,67.35,58.981,114.598,58.981"/>
	<g>
		<path fill="#FFFFFF" d="M230.508,272.396c0,14.345-11.63,25.978-25.978,25.978c-14.348,0-25.979-11.633-25.979-25.978
			c0-14.351,11.63-25.978,25.979-25.978C218.878,246.419,230.508,258.046,230.508,272.396z"/>
		<path fill="#FFFFFF" d="M333.79,272.396c0,14.345-11.626,25.978-25.978,25.978c-14.345,0-25.978-11.633-25.978-25.978
			c0-14.351,11.633-25.978,25.978-25.978C322.164,246.419,333.79,258.046,333.79,272.396z"/>
	</g>
	<path fill="#FFFFFF" d="M294.823,331.506c0,5.691-17.306,20.518-38.649,20.518c-21.349,0-38.654-14.826-38.654-20.518H294.823z"/>
	<polyline fill="#FFFFFF" points="131.726,302.454 91.928,262.649 131.726,222.852 	"/>
	<polyline fill="#FFFFFF" points="378.437,222.14 418.234,261.938 378.437,301.742 	"/>
</g>
</svg>
