<?xml version="1.0" encoding="utf-8"?>
<!-- Generator: Adobe Illustrator 15.0.0, SVG Export Plug-In  -->
<!DOCTYPE svg PUBLIC "-//W3C//DTD SVG 1.1//EN" "http://www.w3.org/Graphics/SVG/1.1/DTD/svg11.dtd" [
	<!ENTITY ns_flows "http://ns.adobe.com/Flows/1.0/">
]>
<svg version="1.1"
	 xmlns="http://www.w3.org/2000/svg" xmlns:xlink="http://www.w3.org/1999/xlink" xmlns:a="http://ns.adobe.com/AdobeSVGViewerExtensions/3.0/"
	 x="0px" y="0px" width="218px" height="28px" viewBox="-0.444 -0.462 218 28"
	 overflow="visible" enable-background="new -0.444 -0.462 218 28" xml:space="preserve">
<defs>
</defs>
<path fill="#ED6545" d="M16.503,1.036v17.465c-0.296,4.514-4.182,8.399-9.066,8.399H7.142c-2.96,0-5.513-1.184-7.142-3.552
	l1.924-2.923c1.332,1.628,2.849,2.923,5.217,2.923c3.219,0,5.81-2.257,5.81-5.513V1.036H16.503z"/>
<path fill="#ED6545" d="M36.039,8.437v18.427h-3.146v-1.961c-1.517,1.221-3.293,1.961-5.328,1.961c-3.108,0-5.847-1.776-7.438-4.44
	c-0.703-1.221-1.147-2.664-1.258-4.181v-1.739V8.437h3.367v1.406v5.772v3.552c0.703,2.479,2.812,4.218,5.329,4.218
	s4.588-1.739,5.328-4.218V8.437h0.037h2.923H36.039z"/>
<path fill="#ED6545" d="M56.463,8.363v18.538h-3.367v-2.072c-1.518,1.295-3.441,2.072-5.625,2.072c-4.884,0-8.881-4.07-8.881-9.214
	c0-5.032,3.997-9.139,8.881-9.139c2.183,0,4.107,0.777,5.625,2.072V8.363H56.463z M53.096,18.501v-1.554
	c-0.407-2.849-2.775-5.032-5.625-5.032c-3.108,0-5.662,2.627-5.662,5.772c0,3.219,2.553,5.847,5.662,5.847
	C50.321,23.534,52.689,21.351,53.096,18.501z"/>
<path fill="#ED6545" d="M76.406,26.864h-3.367V16.096c-0.703-2.479-2.812-4.218-5.329-4.218c-2.368,0-4.218,1.48-5.069,3.7v11.323
	h-3.367V8.399h3.367v1.776c1.443-1.073,3.182-1.776,5.069-1.776c4.625,0,8.289,3.885,8.696,8.622V26.864z"/>
<path fill="#ED6545" d="M97.087,26.901h-6.919V1.036l6.919,0.037c7.068,0.111,12.766,5.92,12.766,12.877
	C109.854,21.018,104.155,26.901,97.087,26.901z M96.903,23.201c5.143,0,9.25-4.107,9.25-9.25c0-5.033-4.107-9.251-9.25-9.251h-3.108
	v18.501H96.903z"/>
<path fill="#ED6545" d="M130.092,17.687c0,0.629-0.037,1.147-0.147,1.628h-0.371h-3.033h-11.027
	c0.667,2.516,2.887,4.292,5.477,4.292c1.221,0,2.258-0.333,3.108-0.962h4.589c-1.592,2.664-4.441,4.33-7.697,4.33
	c-4.921,0-9.029-4.107-9.029-9.288c0-5.18,4.107-9.324,9.029-9.324C126.021,8.363,130.092,12.507,130.092,17.687z M115.513,16.022
	h11.027c-0.666-2.442-2.924-4.292-5.551-4.292S116.216,13.543,115.513,16.022z"/>
<path fill="#ED6545" d="M147.036,23.386h10.879v3.515h-14.394V0.999h3.515V23.386z"/>
<path fill="#ED6545" d="M176.823,17.687c0,0.629-0.037,1.147-0.148,1.628h-0.37h-3.034h-11.027c0.666,2.516,2.887,4.292,5.477,4.292
	c1.222,0,2.258-0.333,3.109-0.962h4.588c-1.592,2.664-4.44,4.33-7.697,4.33c-4.921,0-9.028-4.107-9.028-9.288
	c0-5.18,4.107-9.324,9.028-9.324C172.753,8.363,176.823,12.507,176.823,17.687z M162.243,16.022h11.027
	c-0.666-2.442-2.923-4.292-5.551-4.292C165.093,11.73,162.946,13.543,162.243,16.022z"/>
<path fill="#ED6545" d="M197.21,17.65c0,5.143-4.033,9.213-8.955,9.213c-4.957,0-8.991-4.07-8.991-9.213
	c0-5.106,4.034-9.214,8.991-9.214C193.177,8.437,197.21,12.544,197.21,17.65z M193.954,17.65c0-3.219-2.553-5.847-5.699-5.847
	c-3.182,0-5.734,2.627-5.734,5.847s2.553,5.846,5.734,5.846C191.401,23.497,193.954,20.87,193.954,17.65z M184.444,2.812L190.661,0
	l1.369,2.997l-6.143,2.886L184.444,2.812z"/>
<path fill="#ED6545" d="M217.116,26.864h-3.367V16.096c-0.703-2.479-2.812-4.218-5.329-4.218c-2.368,0-4.218,1.48-5.069,3.7v11.323
	h-3.367V8.399h3.367v1.776c1.443-1.073,3.182-1.776,5.069-1.776c4.626,0,8.288,3.885,8.696,8.622V26.864z"/>
</svg>
